/* XPM */
static char *_a3af8d6579943819d48f1d226cbb90fkwOKHEMxMJsFczwr[] = {
/* columns rows colors chars-per-pixel */
"64 64 11 1 ",
"  c None",
". c #100100",
"X c black",
"o c #213038",
"O c #437DA0",
"+ c #4D92BC",
"@ c #9A2890",
"# c white",
"$ c #D8B78F",
"% c #FFD7A8",
"& c black",
/* pixels */
"        oooooooooooooooooooooooooooooooooooooooooooo            ",
"        oooooooooooooooooooooooooooooooooooooooooooo            ",
"        oooooooooooooooooooooooooooooooooooooooooooo            ",
"        oooooooooooooooooooooooooooooooooooooooooooo            ",
"    ooooooooOOOOOOOOOOOOoooo++++++++++++++++++++++++oooo        ",
"    ooooooooOOOOOOOOOOOOoooo++++++++++++++++++++++++oooo        ",
"    ooooooooOOOOOOOOOOOOoooo++++++++++++++++++++++++oooo        ",
"    ooooooooOOOOOOOOOOOOoooo++++++++++++++++++++++++oooo        ",
"oooo@@@@ooooOOOO####oooo####OOOO++++++++++++++++++++++++oooo    ",
"oooo@@@@ooooOOOO####oooo####OOOO++++++++++++++++++++++++oooo    ",
"oooo@@@@ooooOOOO####oooo####OOOO++++++++++++++++++++++++oooo    ",
"oooo@@@@ooooOOOO####oooo####OOOO++++++++++++++++++++++++oooo    ",
"oooo@@@@ooooOOOO####oooo####OOOO++++oooo++++++++++++oooooooo    ",
"oooo@@@@ooooOOOO####oooo####OOOO++++oooo++++++++++++oooooooo    ",
"oooo@@@@ooooOOOO####oooo####OOOO++++oooo++++++++++++oooooooo    ",
"oooo@@@@ooooOOOO####oooo####OOOO++++oooo++++++++++++oooooooo    ",
"ooooooooooooOOOO####oooo####OOOO++++++++++++++++++++++++oooo    ",
"ooooooooooooOOOO####oooo####OOOO++++++++++++++++++++++++oooo    ",
"ooooooooooooOOOO####oooo####OOOO++++++++++++++++++++++++oooo    ",
"ooooooooooooOOOO####oooo####OOOO++++++++++++++++++++++++oooo    ",
"    oooo@@@@ooooOOOOOOOOOOOOOOOO++++++++++++++++++++++++oooo    ",
"    oooo@@@@ooooOOOOOOOOOOOOOOOO++++++++++++++++++++++++oooo    ",
"    oooo@@@@ooooOOOOOOOOOOOOOOOO++++++++++++++++++++++++oooo    ",
"    oooo@@@@ooooOOOOOOOOOOOOOOOO++++++++++++++++++++++++oooo    ",
"    oooo@@@@ooooOOOOOOOOOOOOOOOO++++++++++++++++++++++++oooo    ",
"    oooo@@@@ooooOOOOOOOOOOOOOOOO++++++++++++++++++++++++oooo    ",
"    oooo@@@@ooooOOOOOOOOOOOOOOOO++++++++++++++++++++++++oooo    ",
"    oooo@@@@ooooOOOOOOOOOOOOOOOO++++++++++++++++++++++++oooo    ",
"    ooooooooooooOOOOOOOOOOOOOOOOOOOO++++oooooooooooooooooooo    ",
"    ooooooooooooOOOOOOOOOOOOOOOOOOOO++++oooooooooooooooooooo    ",
"    ooooooooooooOOOOOOOOOOOOOOOOOOOO++++oooooooooooooooooooo    ",
"    ooooooooooooOOOOOOOOOOOOOOOOOOOO++++oooooooooooooooooooo    ",
"            ooooooooOOOOOOOO++++++++++++++++oooo                ",
"            ooooooooOOOOOOOO++++++++++++++++oooo                ",
"            ooooooooOOOOOOOO++++++++++++++++oooo                ",
"            ooooooooOOOOOOOO++++++++++++++++oooo                ",
"                ooooOOOO$$$$%%%%%%%%%%%%%%%%oooo                ",
"                ooooOOOO$$$$%%%%%%%%%%%%%%%%oooo                ",
"                ooooOOOO$$$$%%%%%%%%%%%%%%%%oooo                ",
"                ooooOOOO$$$$%%%%%%%%%%%%%%%%oooo                ",
"                ooooOOOO$$$$%%%%%%%%%%%%%%%%oooo                ",
"                ooooOOOO$$$$%%%%%%%%%%%%%%%%oooo                ",
"                ooooOOOO$$$$%%%%%%%%%%%%%%%%oooo                ",
"                ooooOOOO$$$$%%%%%%%%%%%%%%%%oooo                ",
"        oooooooo++++OOOO$$$$oooo%%%%%%%%%%%%oooo                ",
"        oooooooo++++OOOO$$$$oooo%%%%%%%%%%%%oooo                ",
"        oooooooo++++OOOO$$$$oooo%%%%%%%%%%%%oooo                ",
"        oooooooo++++OOOO$$$$oooo%%%%%%%%%%%%oooo                ",
"        oooo++++OOOOOOOO++++++++oooo$$$$++++oooo                ",
"        oooo++++OOOOOOOO++++++++oooo$$$$++++oooo                ",
"        oooo++++OOOOOOOO++++++++oooo$$$$++++oooo                ",
"        oooo++++OOOOOOOO++++++++oooo$$$$++++oooo                ",
"        ooooooooooooOOOO++++++++ooooOOOO++++oooo                ",
"        ooooooooooooOOOO++++++++ooooOOOO++++oooo                ",
"        ooooooooooooOOOO++++++++ooooOOOO++++oooo                ",
"        ooooooooooooOOOO++++++++ooooOOOO++++oooo                ",
"                    ooooOOOO++++oooooooooooo                    ",
"                    ooooOOOO++++oooooooooooo                    ",
"                    ooooOOOO++++oooooooooooo                    ",
"                    ooooOOOO++++oooooooooooo                    ",
"                    oooooooooooooooo                            ",
"                    oooooooooooooooo                            ",
"                    oooooooooooooooo                            ",
"                    oooooooooooooooo                            "
};
