/* XPM */
static char *_aedc071803a4247fbdeaa8b7523aa18WeGauykmmAzTPzj9[] = {
/* columns rows colors chars-per-pixel */
"64 64 7 1 ",
"  c None",
". c #F3F4E7",
"X c #AA7959",
"o c #F3F2C0",
"O c #F3E5C2",
"+ c #90625D",
"@ c #E8CFA6",
/* pixels */
"                                                                ",
"                                                                ",
"                                                                ",
"                                                                ",
"                        ................                        ",
"                        ................                        ",
"                        ................                        ",
"                        ................                        ",
"                    ....XXXXXXXXXXXXXXXX....                    ",
"                    ....XXXXXXXXXXXXXXXX....                    ",
"                    ....XXXXXXXXXXXXXXXX....                    ",
"                    ....XXXXXXXXXXXXXXXX....                    ",
"                ....XXXXooooooooooooooooXXXX....                ",
"                ....XXXXooooooooooooooooXXXX....                ",
"                ....XXXXooooooooooooooooXXXX....                ",
"                ....XXXXooooooooooooooooXXXX....                ",
"            ....XXXXooooooooOOOO....oooooooo++++....            ",
"            ....XXXXooooooooOOOO....oooooooo++++....            ",
"            ....XXXXooooooooOOOO....oooooooo++++....            ",
"            ....XXXXooooooooOOOO....oooooooo++++....            ",
"        ....XXXXoooooooo....OOOOOOOOoooooooo@@@@++++....        ",
"        ....XXXXoooooooo....OOOOOOOOoooooooo@@@@++++....        ",
"        ....XXXXoooooooo....OOOOOOOOoooooooo@@@@++++....        ",
"        ....XXXXoooooooo....OOOOOOOOoooooooo@@@@++++....        ",
"        ....XXXXoooo............oooooooooooo@@@@++++....        ",
"        ....XXXXoooo............oooooooooooo@@@@++++....        ",
"        ....XXXXoooo............oooooooooooo@@@@++++....        ",
"        ....XXXXoooo............oooooooooooo@@@@++++....        ",
"    ....XXXXooooooooOOOO....oooooooooooooooo@@@@@@@@++++....    ",
"    ....XXXXooooooooOOOO....oooooooooooooooo@@@@@@@@++++....    ",
"    ....XXXXooooooooOOOO....oooooooooooooooo@@@@@@@@++++....    ",
"    ....XXXXooooooooOOOO....oooooooooooooooo@@@@@@@@++++....    ",
"    ....++++oooooooooooooooooooooooooooo@@@@@@@@@@@@++++....    ",
"    ....++++oooooooooooooooooooooooooooo@@@@@@@@@@@@++++....    ",
"    ....++++oooooooooooooooooooooooooooo@@@@@@@@@@@@++++....    ",
"    ....++++oooooooooooooooooooooooooooo@@@@@@@@@@@@++++....    ",
"    ....++++oooooooooooooooooooooooooooo@@@@@@@@@@@@++++....    ",
"    ....++++oooooooooooooooooooooooooooo@@@@@@@@@@@@++++....    ",
"    ....++++oooooooooooooooooooooooooooo@@@@@@@@@@@@++++....    ",
"    ....++++oooooooooooooooooooooooooooo@@@@@@@@@@@@++++....    ",
"    ....++++oooooooooooooooooooooooo@@@@@@@@@@@@@@@@++++....    ",
"    ....++++oooooooooooooooooooooooo@@@@@@@@@@@@@@@@++++....    ",
"    ....++++oooooooooooooooooooooooo@@@@@@@@@@@@@@@@++++....    ",
"    ....++++oooooooooooooooooooooooo@@@@@@@@@@@@@@@@++++....    ",
"    ....++++oooooooooooooooooooo@@@@@@@@@@@@@@@@@@@@++++....    ",
"    ....++++oooooooooooooooooooo@@@@@@@@@@@@@@@@@@@@++++....    ",
"    ....++++oooooooooooooooooooo@@@@@@@@@@@@@@@@@@@@++++....    ",
"    ....++++oooooooooooooooooooo@@@@@@@@@@@@@@@@@@@@++++....    ",
"        ....++++oooooooooooo@@@@@@@@@@@@@@@@@@@@++++....        ",
"        ....++++oooooooooooo@@@@@@@@@@@@@@@@@@@@++++....        ",
"        ....++++oooooooooooo@@@@@@@@@@@@@@@@@@@@++++....        ",
"        ....++++oooooooooooo@@@@@@@@@@@@@@@@@@@@++++....        ",
"            ....++++++++++++++++++++++++++++++++....            ",
"            ....++++++++++++++++++++++++++++++++....            ",
"            ....++++++++++++++++++++++++++++++++....            ",
"            ....++++++++++++++++++++++++++++++++....            ",
"                ................................                ",
"                ................................                ",
"                ................................                ",
"                ................................                ",
"                                                                ",
"                                                                ",
"                                                                ",
"                                                                "
};
