/* XPM */
static char *f23b7d6b7a1b42ffd4ca50e1119a08eb1Kc8pf3zpZL66f4w[] = {
/* columns rows colors chars-per-pixel */
"64 64 2 1 ",
"  c #A4C263",
". c #C0D470",
/* pixels */
"................................................................",
"................................................................",
"................................................................",
"................................................................",
"................................................................",
"................................................................",
"................................................................",
"................................................................",
"................................................................",
"................................................................",
"................................................................",
"................................................................",
"................................................    ............",
"................................................    ............",
"................................................    ............",
"................................................    ............",
"............................................    ................",
"............................................    ................",
"............................................    ................",
"............................................    ................",
"............................................    ................",
"............................................    ................",
"............................................    ................",
"............................................    ................",
"................    ............................................",
"................    ............................................",
"................    ............................................",
"................    ............................................",
"....................    ........................................",
"....................    ........................................",
"....................    ........................................",
"....................    ........................................",
"....................    ................    ....................",
"....................    ................    ....................",
"....................    ................    ....................",
"....................    ................    ....................",
"....................................    ........................",
"....................................    ........................",
"....................................    ........................",
"....................................    ........................",
"....................................    ........................",
"....................................    ........................",
"....................................    ........................",
"....................................    ........................",
"................................................................",
"................................................................",
"................................................................",
"................................................................",
"................................................................",
"................................................................",
"................................................................",
"................................................................",
"................................................................",
"................................................................",
"................................................................",
"................................................................",
"................................................................",
"................................................................",
"................................................................",
"................................................................",
"................................................................",
"................................................................",
"................................................................",
"................................................................"
};
