/* XPM */
static char *_5512cb26bb648b4a36616b7c742ae7em4gr52Hbck2fhRL8[] = {
/* columns rows colors chars-per-pixel */
"64 64 5 1 ",
"  c None",
". c #957A4B",
"X c #BFA954",
"o c #D4C169",
"O c #B09643",
/* pixels */
"                                                                ",
"                                                                ",
"                                                                ",
"                                                                ",
"                                                                ",
"                                                                ",
"                                                                ",
"                                                                ",
"                                                                ",
"                                                                ",
"                                                                ",
"                                                                ",
"                                                                ",
"                                                                ",
"                                                                ",
"                                                                ",
"                                                                ",
"                                                                ",
"                                                                ",
"                                                                ",
"                                                                ",
"           ..........................................           ",
"           ..........................................           ",
"           ..........................................           ",
"           ..........................................           ",
"           ..........................................           ",
"           ..........................................           ",
"     ......XXXXXoooooooooooXXXXXXXXXXoooooooooooXXXXX......     ",
"     ......XXXXXoooooooooooXXXXXXXXXXoooooooooooXXXXX......     ",
"     ......XXXXXoooooooooooXXXXXXXXXXoooooooooooXXXXX......     ",
"     ......XXXXXoooooooooooXXXXXXXXXXoooooooooooXXXXX......     ",
"     ......XXXXXoooooooooooXXXXXXXXXXoooooooooooXXXXX......     ",
".....ooooooooooo.....OOOOOOOOOOOOOOOOOOOOOO.....ooooooooooo.....",
".....ooooooooooo.....OOOOOOOOOOOOOOOOOOOOOO.....ooooooooooo.....",
".....ooooooooooo.....OOOOOOOOOOOOOOOOOOOOOO.....ooooooooooo.....",
".....ooooooooooo.....OOOOOOOOOOOOOOOOOOOOOO.....ooooooooooo.....",
".....ooooooooooo.....OOOOOOOOOOOOOOOOOOOOOO.....ooooooooooo.....",
".....XXXXXXoooooooooo......................ooooooooooXXXXXX.....",
".....XXXXXXoooooooooo......................ooooooooooXXXXXX.....",
".....XXXXXXoooooooooo......................ooooooooooXXXXXX.....",
".....XXXXXXoooooooooo......................ooooooooooXXXXXX.....",
".....XXXXXXoooooooooo......................ooooooooooXXXXXX.....",
".....XXXXXXoooooooooo......................ooooooooooXXXXXX.....",
".....OOOOOOXXXXXXXXXXXXXXXXXXXXXXXXXXXXXXXXXXXXXXXXXXOOOOOO.....",
".....OOOOOOXXXXXXXXXXXXXXXXXXXXXXXXXXXXXXXXXXXXXXXXXXOOOOOO.....",
".....OOOOOOXXXXXXXXXXXXXXXXXXXXXXXXXXXXXXXXXXXXXXXXXXOOOOOO.....",
".....OOOOOOXXXXXXXXXXXXXXXXXXXXXXXXXXXXXXXXXXXXXXXXXXOOOOOO.....",
".....OOOOOOXXXXXXXXXXXXXXXXXXXXXXXXXXXXXXXXXXXXXXXXXXOOOOOO.....",
"     ......OOOOOOOOOOXXXXXXXXXXXXXXXXOOOOOOOOOOOXXXXX......     ",
"     ......OOOOOOOOOOXXXXXXXXXXXXXXXXOOOOOOOOOOOXXXXX......     ",
"     ......OOOOOOOOOOXXXXXXXXXXXXXXXXOOOOOOOOOOOXXXXX......     ",
"     ......OOOOOOOOOOXXXXXXXXXXXXXXXXOOOOOOOOOOOXXXXX......     ",
"     ......OOOOOOOOOOXXXXXXXXXXXXXXXXOOOOOOOOOOOXXXXX......     ",
"           ..........................................           ",
"           ..........................................           ",
"           ..........................................           ",
"           ..........................................           ",
"           ..........................................           ",
"           ..........................................           ",
"                                                                ",
"                                                                ",
"                                                                ",
"                                                                ",
"                                                                "
};
