/* XPM */
static char *c71c8b8fed73450c8d196449f6fbb0cdb8HqA1WY7A14ygcZ[] = {
/* columns rows colors chars-per-pixel */
"64 64 6 1 ",
"  c None",
". c #6B7470",
"X c #C1C8B9",
"o c #818B83",
"O c #9DA89A",
"+ c #545959",
/* pixels */
"                       ..............                           ",
"                       ..............                           ",
"                       ..............                           ",
"                       ..............                           ",
"                       ..............                           ",
"                       ..............                           ",
"                  .....XXXXXXXXXXXXXX.........                  ",
"                  .....XXXXXXXXXXXXXX.........                  ",
"                  .....XXXXXXXXXXXXXX.........                  ",
"                  .....XXXXXXXXXXXXXX.........                  ",
"                  .....XXXXXXXXXXXXXX.........                  ",
"                  .....XXXXXXXXXXXXXX.........                  ",
"              ....XXXXXXXXXXXXXXXXXXXXXXXXXXXX.........         ",
"              ....XXXXXXXXXXXXXXXXXXXXXXXXXXXX.........         ",
"              ....XXXXXXXXXXXXXXXXXXXXXXXXXXXX.........         ",
"              ....XXXXXXXXXXXXXXXXXXXXXXXXXXXX.........         ",
"              ....XXXXXXXXXXXXXXXXXXXXXXXXXXXX.........         ",
"              ....oooooXXXXXXXXXXXXXXOOOOOOOOOOOOOXXXXX....     ",
"              ....oooooXXXXXXXXXXXXXXOOOOOOOOOOOOOXXXXX....     ",
"              ....oooooXXXXXXXXXXXXXXOOOOOOOOOOOOOXXXXX....     ",
"              ....oooooXXXXXXXXXXXXXXOOOOOOOOOOOOOXXXXX....     ",
"              ....oooooXXXXXXXXXXXXXXOOOOOOOOOOOOOXXXXX....     ",
"              ....oooooXXXXXXXXXXXXXXOOOOOOOOOOOOOXXXXX....     ",
"         .....OOOOoooooooooOOOOOOOOOOOOOOOOOOOXXXXXXXXXXXXX+++++",
"         .....OOOOoooooooooOOOOOOOOOOOOOOOOOOOXXXXXXXXXXXXX+++++",
"         .....OOOOoooooooooOOOOOOOOOOOOOOOOOOOXXXXXXXXXXXXX+++++",
"         .....OOOOoooooooooOOOOOOOOOOOOOOOOOOOXXXXXXXXXXXXX+++++",
"         .....OOOOoooooooooOOOOOOOOOOOOOOOOOOOXXXXXXXXXXXXX+++++",
"         .....OOOOoooooooooOOOOOOOOOOOOOOOOOOOXXXXXXXXXXXXX+++++",
"     ....OOOOOOOOOOOOOOooooOOOOOOOOOOXXXXXXXXXXXXXXXXXXXXXX+++++",
"     ....OOOOOOOOOOOOOOooooOOOOOOOOOOXXXXXXXXXXXXXXXXXXXXXX+++++",
"     ....OOOOOOOOOOOOOOooooOOOOOOOOOOXXXXXXXXXXXXXXXXXXXXXX+++++",
"     ....OOOOOOOOOOOOOOooooOOOOOOOOOOXXXXXXXXXXXXXXXXXXXXXX+++++",
"     ....OOOOOOOOOOOOOOooooOOOOOOOOOOXXXXXXXXXXXXXXXXXXXXXX+++++",
"     ....OOOOOOOOOOOOOOooooOOOOOOOOOOXXXXXXXXXXXXXXXXXXXXXX+++++",
"+++++OOOOOOOOOOOOOOOOOOOOOOXXXXXXXXXXXXXXXXXXXXXXXXXXXXoooo+++++",
"+++++OOOOOOOOOOOOOOOOOOOOOOXXXXXXXXXXXXXXXXXXXXXXXXXXXXoooo+++++",
"+++++OOOOOOOOOOOOOOOOOOOOOOXXXXXXXXXXXXXXXXXXXXXXXXXXXXoooo+++++",
"+++++OOOOOOOOOOOOOOOOOOOOOOXXXXXXXXXXXXXXXXXXXXXXXXXXXXoooo+++++",
"+++++OOOOOOOOOOOOOOOOOOOOOOXXXXXXXXXXXXXXXXXXXXXXXXXXXXoooo+++++",
"+++++OOOOOOOOOOOOOOOOOOOOOOXXXXXXXXXXXXXXXXXXXXXXXXXXXXoooo+++++",
"+++++ooooOOOOOOOOO.....XXXXXXXXXXXXXXXXXXXXXXXXXXXooooooooo+++++",
"+++++ooooOOOOOOOOO.....XXXXXXXXXXXXXXXXXXXXXXXXXXXooooooooo+++++",
"+++++ooooOOOOOOOOO.....XXXXXXXXXXXXXXXXXXXXXXXXXXXooooooooo+++++",
"+++++ooooOOOOOOOOO.....XXXXXXXXXXXXXXXXXXXXXXXXXXXooooooooo+++++",
"+++++ooooOOOOOOOOO.....XXXXXXXXXXXXXXXXXXXXXXXXXXXooooooooo+++++",
"+++++ooooOOOOOOOOO.....XXXXXXXXXXXXXXXXXXXXXXXXXXXooooooooo+++++",
"     ooooooooo....oooooXXXXXXXXXXXXXXXXXXoooooooooooooooooo+++++",
"     ooooooooo....oooooXXXXXXXXXXXXXXXXXXoooooooooooooooooo+++++",
"     ooooooooo....oooooXXXXXXXXXXXXXXXXXXoooooooooooooooooo+++++",
"     ooooooooo....oooooXXXXXXXXXXXXXXXXXXoooooooooooooooooo+++++",
"     ooooooooo....oooooXXXXXXXXXXXXXXXXXXoooooooooooooooooo+++++",
"              ....ooooooooooooooooooooooooooooooooooooooooo     ",
"              ....ooooooooooooooooooooooooooooooooooooooooo     ",
"              ....ooooooooooooooooooooooooooooooooooooooooo     ",
"              ....ooooooooooooooooooooooooooooooooooooooooo     ",
"              ....ooooooooooooooooooooooooooooooooooooooooo     ",
"              ....ooooooooooooooooooooooooooooooooooooooooo     ",
"                  oooooooooooooooooooooooooooooooo              ",
"                  oooooooooooooooooooooooooooooooo              ",
"                  oooooooooooooooooooooooooooooooo              ",
"                  oooooooooooooooooooooooooooooooo              ",
"                  oooooooooooooooooooooooooooooooo              ",
"                  oooooooooooooooooooooooooooooooo              "
};
